<?xml version="1.0" standalone="no"?>
<!DOCTYPE svg PUBLIC "-//W3C//DTD SVG 1.1//EN" "http://www.w3.org/Graphics/SVG/1.1/DTD/svg11.dtd" >
<svg xmlns="http://www.w3.org/2000/svg">
<metadata></metadata>
<defs>
<font id="SenseMediumRegular" horiz-adv-x="1271" >
<font-face units-per-em="2048" ascent="1575" descent="-473" />
<missing-glyph horiz-adv-x="479" />
<glyph horiz-adv-x="0" />
<glyph horiz-adv-x="0" />
<glyph unicode="&#xd;" horiz-adv-x="479" />
<glyph unicode=" "  horiz-adv-x="479" />
<glyph unicode="&#x09;" horiz-adv-x="479" />
<glyph unicode="&#xa0;" horiz-adv-x="479" />
<glyph unicode="!" horiz-adv-x="528" d="M127 117q0 59 40 100t97 41t97 -41t40 -100q0 -57 -40 -97t-97 -40t-97 40t-40 97zM131 1386h264l-14 -997h-236z" />
<glyph unicode="&#x22;" horiz-adv-x="888" d="M152 1546h204l-10 -510h-184zM532 1546h205l-10 -510h-184z" />
<glyph unicode="#" horiz-adv-x="1349" d="M49 403v175h256l66 256h-287l6 174h324l96 378h188l-94 -378h234l96 378h190l-94 -378h211v-174h-254l-63 -256h272v-175h-315l-101 -403h-190l98 403h-233l-101 -403h-190l98 403h-213zM498 578h235l62 256h-234z" />
<glyph unicode="$" horiz-adv-x="1024" d="M68 117l67 190q222 -110 373 -110q96 0 150.5 50.5t54.5 123.5q0 91 -133 149q-42 17 -116 45.5t-124 50t-88 43.5q-81 46 -122.5 109t-41.5 160q0 148 85.5 248.5t234.5 128.5v180h213v-172q140 -17 290 -90l-59 -187q-207 84 -332 84q-87 0 -141.5 -44t-54.5 -118 q0 -49 28 -82t84 -57q64 -28 164 -68t137 -57q111 -52 165 -119.5t54 -183.5q0 -152 -92.5 -253t-242.5 -128v-200h-213v192q-161 13 -340 115z" />
<glyph unicode="%" horiz-adv-x="1863" d="M123 1051q0 69 23 132.5t67 115.5t115 83t159 31q87 0 158 -31t115 -82.5t67 -115.5t23 -133t-23 -132.5t-66.5 -115t-114.5 -82.5t-159 -31q-89 0 -160 31t-114.5 82.5t-66.5 115t-23 132.5zM319 1047q0 -78 44 -135.5t124 -57.5t124 57.5t44 137.5q0 82 -44 141 t-124 59q-79 0 -123.5 -60.5t-44.5 -141.5zM485 0l713 1386h207l-715 -1386h-205zM1038 336q0 94 39.5 175t124.5 135t201 54q88 0 158.5 -31t114.5 -83t67.5 -116t23.5 -134q0 -93 -39 -173t-123.5 -133t-201.5 -53q-88 0 -159.5 30.5t-115 81.5t-67 114.5t-23.5 132.5z M1235 332q0 -78 44 -134.5t124 -56.5q81 0 125.5 57t44.5 136q0 81 -45 141t-125 60q-79 0 -123.5 -61t-44.5 -142z" />
<glyph unicode="&#x26;" horiz-adv-x="1406" d="M78 342q0 125 70.5 211t193.5 154q-172 165 -172 333q0 161 119 267t311 106q187 0 302.5 -99.5t115.5 -250.5q0 -58 -18 -108t-45 -85.5t-70 -69.5t-81 -56t-91 -48l-29 -14q142 -136 272 -246q72 110 107 207h242q-71 -185 -185 -338q97 -84 197 -160l-139 -174 q-20 14 -108.5 87t-102.5 83q-191 -166 -416 -166q-130 0 -237 43.5t-171.5 128.5t-64.5 195zM336 375q0 -92 66.5 -148.5t168.5 -56.5q122 0 236 102q-162 140 -332 306q-139 -75 -139 -203zM410 1040q0 -94 139 -233l33 14q111 49 153.5 98.5t42.5 124.5t-49.5 121.5 t-126.5 46.5q-84 0 -138 -48t-54 -124z" />
<glyph unicode="'" horiz-adv-x="509" d="M152 1546h204l-10 -506h-184z" />
<glyph unicode="(" horiz-adv-x="571" d="M49 573q0 236 62.5 471.5t189.5 501.5h219q-239 -500 -239 -979q0 -480 239 -919h-219q-129 241 -190.5 466t-61.5 459z" />
<glyph unicode=")" horiz-adv-x="571" d="M55 -352q240 482 240 960q0 480 -240 938h219q128 -253 190 -482.5t62 -465.5q0 -234 -62 -465t-190 -485h-219z" />
<glyph unicode="*" horiz-adv-x="1081" d="M156 1001l241 129l-239 130l82 149l225 -147l-10 284h170l-11 -284l226 147l84 -149l-242 -130l240 -131l-82 -145l-226 143l11 -286h-170l10 286l-225 -143z" />
<glyph unicode="+" d="M109 446v181h428v442h196v-442h428v-181h-428v-446h-196v446h-428z" />
<glyph unicode="," horiz-adv-x="567" d="M90 -270l119 514h258l-164 -514h-213z" />
<glyph unicode="-" horiz-adv-x="561" d="M45 430v209h467v-209h-467z" />
<glyph unicode="." horiz-adv-x="520" d="M123 117q0 57 40 98t97 41t97 -41t40 -98q0 -58 -40 -99t-97 -41t-97 41t-40 99z" />
<glyph unicode="/" horiz-adv-x="927" d="M-29 -160l746 1706h235l-745 -1706h-236z" />
<glyph unicode="0" horiz-adv-x="1130" d="M53 508q0 104 29 191.5t78.5 149t116.5 105t142.5 64t155.5 20.5q98 0 187.5 -34.5t160 -99t112.5 -166t42 -226.5q0 -130 -44 -233.5t-118 -167.5t-166.5 -97.5t-195.5 -33.5q-97 0 -185.5 35t-159.5 99.5t-113 166.5t-42 227zM299 506q0 -142 76 -233t186 -91 q113 0 191.5 88.5t78.5 241.5q0 142 -77 232t-187 90q-111 0 -189.5 -86.5t-78.5 -241.5z" />
<glyph unicode="1" horiz-adv-x="598" d="M35 819v197h440v-1016h-235v819h-205z" />
<glyph unicode="2" horiz-adv-x="942" d="M53 0v158q231 169 333 261q198 178 198 279q0 65 -39 100.5t-111 35.5q-112 0 -268 -89l-80 189q179 106 375 106q164 0 264 -88t100 -233q0 -33 -8.5 -66.5t-21 -62.5t-35.5 -61.5t-42 -56.5t-51.5 -55.5t-53.5 -50.5t-58 -49t-55 -43.5t-55 -41t-48 -35.5h498v-197 h-842z" />
<glyph unicode="3" horiz-adv-x="880" d="M41 979q163 61 352 61q101 0 179.5 -28t124 -75t68.5 -103.5t23 -118.5q0 -93 -52.5 -175t-145.5 -124q97 -22 158 -97t61 -182q-1 -99 -37 -175.5t-99 -126.5t-155.5 -81.5t-199 -45t-236.5 -13.5h-37v201q193 2 285 22q225 49 225 215q0 81 -48 121.5t-128 40.5 q-60 0 -174 -8q0 33 -1 97t-1 97l143 11q102 7 153.5 58.5t51.5 131.5q0 68 -49 110t-131 42q-123 0 -283 -54q-6 24 -15.5 64t-17.5 73t-14 62z" />
<glyph unicode="4" horiz-adv-x="1087" d="M53 0v158l488 858h295v-819h204v-197h-204v-319h-218v319h-565zM285 195h333v581z" />
<glyph unicode="5" horiz-adv-x="856" d="M57 -127q60 9 102.5 17t97.5 21.5t93 27.5t78 36t64 47.5t39.5 60.5t15.5 77q0 87 -79 132t-208 48l-190 4l47 672h659v-199h-444q-3 -48 -11.5 -142.5t-11.5 -142.5q482 -27 482 -346q0 -433 -711 -518z" />
<glyph unicode="6" horiz-adv-x="1017" d="M72 506q0 318 184.5 547t536.5 329q12 -35 33.5 -102.5t31.5 -97.5q-212 -51 -351.5 -171t-187.5 -282q123 102 283 102q72 0 136.5 -25t115.5 -73t81 -125.5t30 -175.5q0 -196 -128.5 -325.5t-330.5 -129.5q-198 0 -316 141t-118 388zM309 434q0 -100 54.5 -176 t150.5 -76q91 0 150 63.5t59 176.5q0 109 -55.5 163t-143.5 54q-100 0 -157.5 -56.5t-57.5 -148.5z" />
<glyph unicode="7" horiz-adv-x="915" d="M29 819v197h827v-146q-51 -98 -286 -593.5t-294 -624.5l-219 82q84 175 287 591t244 494h-559z" />
<glyph unicode="8" horiz-adv-x="1019" d="M63 367q0 114 65 196.5t191 124.5q-227 83 -227 309q0 90 35.5 162t95.5 117t133.5 68.5t153.5 23.5q79 0 152.5 -23.5t133 -68.5t95 -117t35.5 -162q0 -224 -226 -309q126 -41 191 -124t65 -197q0 -95 -38.5 -171.5t-102 -123.5t-142 -72t-163.5 -25t-163.5 25 t-142.5 72t-102.5 123.5t-38.5 171.5zM295 385q0 -100 64.5 -156.5t150.5 -56.5t149.5 56.5t63.5 156.5q0 93 -61.5 152t-151.5 59q-91 0 -153 -59t-62 -152zM313 981q0 -88 57.5 -143.5t139.5 -55.5q81 0 138 55.5t57 143.5q0 87 -58.5 135.5t-136.5 48.5q-79 0 -138 -48.5 t-59 -135.5z" />
<glyph unicode="9" horiz-adv-x="1017" d="M53 586q0 195 128 324.5t327 129.5q203 0 320.5 -139.5t117.5 -388.5q0 -320 -186 -551.5t-535 -325.5q-10 31 -31.5 98.5t-33.5 102.5q213 53 351.5 172t186.5 281q-124 -103 -282 -103q-72 0 -136.5 25t-115.5 73t-81 126t-30 176zM295 596q0 -109 55.5 -163t143.5 -54 q95 0 155 57t60 148q0 100 -54.5 176t-150.5 76q-91 0 -150 -63.5t-59 -176.5z" />
<glyph unicode=":" horiz-adv-x="520" d="M123 117q0 57 40 98t97 41t97 -41t40 -98q0 -58 -40 -99t-97 -41t-97 41t-40 99zM123 803q0 57 40 98t97 41t97 -41t40 -98q0 -58 -40 -98.5t-97 -40.5t-97 40.5t-40 98.5z" />
<glyph unicode=";" horiz-adv-x="567" d="M90 -270l119 514h258l-164 -514h-213zM174 803q0 57 40 98t97 41t97.5 -41t40.5 -98q0 -58 -40.5 -98.5t-97.5 -40.5t-97 40.5t-40 98.5z" />
<glyph unicode="&#x3c;" d="M137 438v140l983 395v-203l-659 -262q50 -17 332 -132.5t327 -131.5v-203z" />
<glyph unicode="=" d="M119 240v182h1032v-182h-1032zM119 649v185h1032v-185h-1032z" />
<glyph unicode="&#x3e;" d="M137 41v203q45 16 327.5 131.5t332.5 132.5l-660 262v203l983 -395v-140z" />
<glyph unicode="?" horiz-adv-x="952" d="M78 1280q208 133 422 133q162 0 274.5 -104.5t112.5 -276.5q0 -141 -117 -268l-133 -129q-63 -61 -84.5 -107.5t-20.5 -136.5h-223q-10 52 -10 90q0 161 145 293l103 92q84 84 84 164q0 72 -48.5 115t-119.5 43q-122 0 -309 -101zM297 117q0 57 40 98t97 41t97 -41 t40 -98q0 -58 -40 -99t-97 -41t-97 41t-40 99z" />
<glyph unicode="@" horiz-adv-x="1738" d="M113 588q0 162 48.5 302t130 238.5t189 169t226 104.5t239.5 34q107 0 206 -26t185.5 -80t150.5 -131.5t101 -186.5t37 -238q0 -91 -31 -181.5t-87 -165t-143.5 -121t-190.5 -46.5q-61 0 -114 30t-85 75q-94 -105 -217 -105q-116 0 -190 82t-74 219q0 129 59 239.5 t163 176t228 65.5q139 0 277 -65l-80 -461q0 -3 -1 -11.5t-1 -10.5q0 -66 78 -66q87 0 150 99.5t63 240.5q0 121 -40 217t-108 155t-154.5 89.5t-183.5 30.5q-92 0 -182.5 -26.5t-172 -81.5t-144 -132t-99.5 -186t-37 -236q0 -90 23 -172.5t71.5 -155t118.5 -126 t170.5 -84.5t220.5 -31q217 0 449 133l80 -148q-254 -159 -535 -159q-157 0 -289 40t-224 109t-156 162.5t-94.5 200t-30.5 221.5zM692 557q0 -61 28 -95t68 -34q67 0 118.5 50.5t62.5 121.5q40 215 47 258q-47 21 -86 21q-73 0 -129 -49.5t-82.5 -121.5t-26.5 -151z" />
<glyph unicode="A" horiz-adv-x="1280" d="M4 0l508 1395h268l496 -1395h-275l-118 356h-492l-119 -356h-268zM453 543h370l-184 557z" />
<glyph unicode="B" horiz-adv-x="1099" d="M117 0v1386h401q221 0 342 -100.5t121 -265.5q0 -112 -45.5 -188t-142.5 -127q101 -33 162 -123.5t61 -192.5q0 -191 -125.5 -290t-366.5 -99h-407zM360 201h162q118 0 182 51t64 147q0 100 -59.5 153.5t-173.5 53.5h-175v-405zM360 782h156q93 0 152 58t59 155 q0 80 -49.5 134.5t-155.5 54.5h-162v-402z" />
<glyph unicode="C" horiz-adv-x="1073" d="M63 682q0 112 23.5 217t74.5 199t124 163.5t178 110.5t231 41q86 0 155 -13.5t173 -47.5l-51 -213q-4 1 -25.5 8t-26.5 8.5t-24 7.5t-25.5 7.5t-24 6t-27 5.5t-26.5 4t-30.5 3.5t-30.5 1.5t-35 1q-94 0 -166.5 -42t-115.5 -114.5t-64.5 -162t-21.5 -191.5 q0 -223 100.5 -353t302.5 -130q108 0 246 53q22 -120 39 -201q-157 -71 -320 -71q-199 0 -344 93t-217 250t-72 359z" />
<glyph unicode="D" horiz-adv-x="1234" d="M117 0v1386h360q151 0 271.5 -39t198 -103.5t128.5 -153.5t72.5 -182.5t21.5 -196.5q0 -333 -170 -522t-491 -189h-391zM360 209h158q192 0 288.5 133t96.5 363t-110.5 351.5t-311.5 121.5h-121v-969z" />
<glyph unicode="E" horiz-adv-x="1009" d="M117 0v1386h794v-208h-546v-381h485v-209h-485v-381h569v-207h-817z" />
<glyph unicode="F" horiz-adv-x="964" d="M117 0v1386h780v-208h-532v-412h481v-209h-481v-557h-248z" />
<glyph unicode="G" horiz-adv-x="1224" d="M63 686q0 115 27 221.5t82.5 198.5t134 160.5t187 107.5t235.5 39q182 0 367 -70l-49 -210q-157 59 -314 59q-191 0 -300 -140.5t-109 -365.5q0 -338 213 -450q94 -48 208 -48q48 0 125 15v483h242v-641q-81 -32 -192 -48.5t-211 -16.5q-193 0 -340 89t-226.5 249 t-79.5 368z" />
<glyph unicode="H" horiz-adv-x="1241" d="M117 0v1386h245v-591h517v591h245v-1386h-245v590h-517v-590h-245z" />
<glyph unicode="I" horiz-adv-x="481" d="M117 0v1386h248v-1386h-248z" />
<glyph unicode="J" horiz-adv-x="833" d="M16 59l72 224q109 -64 199 -64q184 0 184 205v962h246v-962q0 -220 -105.5 -334.5t-287.5 -114.5q-86 0 -155.5 20.5t-152.5 63.5z" />
<glyph unicode="K" horiz-adv-x="1120" d="M117 0v1386h248v-614q88 118 436 614h293q-38 -51 -224.5 -302t-275.5 -369q187 -255 508 -715h-305l-432 629v-629h-248z" />
<glyph unicode="L" horiz-adv-x="911" d="M117 0v1386h248v-1179h495v-207h-743z" />
<glyph unicode="M" horiz-adv-x="1507" d="M117 0v1386h237l400 -847l403 847h234v-1386h-238v911l-326 -682h-163l-318 680v-909h-229z" />
<glyph unicode="N" horiz-adv-x="1267" d="M117 0v1386h227l576 -954v954h231v-1386h-217l-588 973v-973h-229z" />
<glyph unicode="O" horiz-adv-x="1380" d="M63 682q0 148 43.5 280t123 232.5t201 159.5t267.5 59q276 0 446.5 -193t170.5 -515q0 -157 -43.5 -290.5t-123.5 -231t-200.5 -153t-267.5 -55.5q-276 0 -446.5 195t-170.5 512zM322 690q0 -222 93 -359.5t269 -137.5q174 0 273.5 136.5t99.5 375.5q0 138 -38 246 t-121.5 175.5t-203.5 67.5q-180 0 -276 -137t-96 -367z" />
<glyph unicode="P" horiz-adv-x="1071" d="M117 0v1386h415q225 0 351.5 -110t126.5 -301q0 -210 -130 -330.5t-348 -120.5h-170v-524h-245zM362 725h173q102 0 161.5 65.5t59.5 167.5t-58.5 164t-173.5 62h-162v-459z" />
<glyph unicode="Q" horiz-adv-x="1378" d="M63 682q0 148 43.5 280t123 232.5t201 159.5t267.5 59q276 0 446.5 -193t170.5 -515q0 -284 -131 -474l131 -125l-158 -163l-137 131q-145 -99 -340 -99q-276 0 -446.5 195t-170.5 512zM322 686q0 -222 93 -360t269 -138q96 0 164 50l-143 137l155 164l137 -131 q60 120 60 292q0 138 -38 246.5t-121.5 176t-203.5 67.5q-180 0 -276 -137t-96 -367z" />
<glyph unicode="R" horiz-adv-x="1089" d="M117 0v1386h422q225 0 345 -109.5t120 -293.5q0 -146 -77.5 -257.5t-224.5 -152.5q32 -49 168.5 -276.5t176.5 -296.5h-291q-41 78 -155 281.5t-150 259.5h-91v-541h-243zM360 735h160q102 0 167 66.5t65 173.5q0 95 -56 154t-153 59h-183v-453z" />
<glyph unicode="S" horiz-adv-x="1026" d="M47 102l70 215q234 -116 387 -116q95 0 154 46.5t59 133.5q0 101 -144 164q-41 19 -126 49.5t-115 42.5q-266 108 -266 352q0 194 128 308t326 114q194 0 400 -104l-64 -209q-88 33 -123 45.5t-100.5 28.5t-116.5 16q-89 0 -148 -44.5t-59 -125.5q0 -99 133 -162 q40 -18 126 -48t108 -38q145 -55 217 -144t72 -235q0 -123 -63.5 -218.5t-172 -146.5t-242.5 -51q-210 0 -440 127z" />
<glyph unicode="T" horiz-adv-x="1034" d="M23 1178v208h978v-208h-360v-1178h-248v1178h-370z" />
<glyph unicode="U" horiz-adv-x="1253" d="M117 481v905h248v-907q0 -138 70 -213.5t194 -75.5q129 0 194.5 75t65.5 212v909h248v-903q0 -248 -132.5 -375.5t-377.5 -127.5q-239 0 -374.5 128t-135.5 373z" />
<glyph unicode="V" horiz-adv-x="1224" d="M8 1386h273q140 -450 333 -1026q161 501 340 1026h260q-151 -412 -499 -1396h-211q-343 954 -496 1396z" />
<glyph unicode="W" horiz-adv-x="1701" d="M6 1386h266l222 -1011l256 1011h204l273 -1019l217 1019h254l-344 -1386h-252l-250 961l-248 -961h-254z" />
<glyph unicode="X" horiz-adv-x="1169" d="M8 0l434 688q-84 136 -242 394.5t-186 303.5h289q33 -54 91 -147.5t106 -171.5t90 -147l291 466h272l-432 -686l438 -700h-291l-293 461l-288 -461h-279z" />
<glyph unicode="Y" horiz-adv-x="1146" d="M-10 1386h284l312 -571l297 571h276l-457 -833v-553h-249v553z" />
<glyph unicode="Z" horiz-adv-x="1114" d="M70 0v123l602 1055h-584v208h934v-98l-616 -1079h628v-209h-964z" />
<glyph unicode="[" horiz-adv-x="567" d="M78 -352v1898h409v-196h-190v-1504h190v-198h-409z" />
<glyph unicode="\" horiz-adv-x="927" d="M-29 1546h236l745 -1706h-235z" />
<glyph unicode="]" horiz-adv-x="567" d="M78 -154h190v1504h-190v196h409v-1898h-409v198z" />
<glyph unicode="^" horiz-adv-x="1239" d="M59 473l486 885h139l498 -885h-246l-320 598l-315 -598h-242z" />
<glyph unicode="_" horiz-adv-x="1222" d="M0 -113h1223v-192h-1223v192z" />
<glyph unicode="`" horiz-adv-x="1079" d="M338 1452h291l162 -317h-205z" />
<glyph unicode="a" horiz-adv-x="962" d="M45 262q0 326 578 348q0 129 -42.5 178.5t-146.5 49.5q-115 0 -280 -62l-48 180q69 33 165.5 57.5t172.5 24.5q219 0 315.5 -102.5t96.5 -349.5v-586h-223v119q-45 -57 -123.5 -95t-163.5 -38q-135 0 -218 76t-83 200zM281 276q0 -54 36 -86t97 -32q90 0 150.5 55 t60.5 145v95q-344 -11 -344 -177z" />
<glyph unicode="b" horiz-adv-x="1058" d="M113 467v1079h235v-647q52 67 126 103t153 36q112 0 196.5 -68t128 -183t43.5 -259q0 -255 -121.5 -403t-326.5 -148q-97 0 -175.5 29t-136.5 88t-90 153.5t-32 219.5zM346 455q0 -140 54 -209.5t147 -69.5q92 0 147.5 83t55.5 253q0 162 -56 240.5t-135 78.5 q-93 0 -153 -71t-60 -172v-133z" />
<glyph unicode="c" horiz-adv-x="825" d="M63 487q0 82 21.5 161.5t64.5 150t102.5 124t141 84.5t174.5 31q106 0 215 -41l-28 -200q-91 32 -162 32q-128 0 -207.5 -95t-79.5 -236q0 -82 28 -152t88.5 -116t141.5 -46q37 0 93.5 12t97.5 27q17 -131 26 -190q-45 -20 -123.5 -36.5t-138.5 -16.5q-137 0 -242 69.5 t-159 184t-54 253.5z" />
<glyph unicode="d" horiz-adv-x="1052" d="M61 477q0 154 59 279.5t173.5 200.5t263.5 75q90 0 150 -14v528h233v-1546h-223v127q-51 -72 -129 -112t-156 -40q-169 0 -270 131.5t-101 370.5zM307 465q0 -135 55 -210t136 -75q88 0 149.5 69.5t61.5 176.5v381q-61 24 -134 24q-126 0 -197 -97.5t-71 -268.5z" />
<glyph unicode="e" horiz-adv-x="1003" d="M61 492q0 103 33.5 200t93.5 174t151 123.5t198 46.5q197 0 300 -137t103 -369q0 -57 -4 -88h-639q11 -258 278 -258q52 0 107 12.5t87.5 25t86.5 36.5l57 -182q-207 -99 -383 -99q-99 0 -182.5 31t-148.5 92t-101.5 161.5t-36.5 230.5zM301 606h412q0 105 -46.5 167.5 t-140.5 62.5q-92 0 -152.5 -70t-72.5 -160z" />
<glyph unicode="f" horiz-adv-x="636" d="M27 821v195h155v164q0 163 91.5 267.5t256.5 104.5q66 0 95 -10q-6 -93 -9 -190q-1 0 -28.5 2t-44.5 2q-127 0 -127 -176v-164h194v-195h-194v-821h-234v821h-155z" />
<glyph unicode="g" horiz-adv-x="1054" d="M61 481q0 115 35.5 216.5t100 177.5t162.5 120.5t216 44.5q185 0 367 -65v-893q0 -231 -109.5 -345t-334.5 -114q-152 0 -301 62l43 186q155 -49 247 -49q113 0 171.5 55.5t58.5 183.5v72q-49 -71 -126 -105t-159 -34q-158 0 -264.5 126t-106.5 361zM307 477 q0 -134 54.5 -206t136.5 -72q89 0 150 69t61 174v367q-69 27 -134 27q-127 0 -197.5 -97t-70.5 -262z" />
<glyph unicode="h" horiz-adv-x="1046" d="M113 0v1546h233v-643q46 65 115 101t151 36q122 0 210.5 -77t107.5 -226q8 -68 8 -178v-559h-233v582q0 123 -37.5 185t-126.5 62q-95 0 -145 -64t-50 -165v-600h-233z" />
<glyph unicode="i" horiz-adv-x="460" d="M94 1325q0 57 39.5 96t95.5 39q57 0 96.5 -39t39.5 -96t-39.5 -97t-96.5 -40q-56 0 -95.5 40t-39.5 97zM113 0v1016h233v-1016h-233z" />
<glyph unicode="j" horiz-adv-x="460" d="M-59 -176q8 -2 45 -2q127 0 127 168v1026h233v-1028q0 -163 -90 -263t-252 -100q-47 0 -63 4v195zM94 1325q0 57 39.5 96t95.5 39q57 0 96.5 -39t39.5 -96t-39.5 -97t-96.5 -40q-56 0 -95.5 40t-39.5 97z" />
<glyph unicode="k" horiz-adv-x="968" d="M113 0v1546h235v-975q66 88 190.5 249t151.5 196h264q-125 -162 -379 -486l390 -530h-273l-344 473v-473h-235z" />
<glyph unicode="l" horiz-adv-x="460" d="M113 0v1546h235v-1546h-235z" />
<glyph unicode="m" horiz-adv-x="1619" d="M113 0v1016h221v-127q48 74 122 112.5t156 38.5q80 0 149 -38t107 -111q54 70 134.5 109.5t171.5 39.5q130 0 220 -76t109 -227q8 -68 8 -178v-559h-233v582q0 124 -36 185.5t-124 61.5q-95 0 -142.5 -64t-47.5 -165v-600h-234v592q0 119 -35 178t-122 59 q-96 0 -143.5 -63.5t-47.5 -165.5v-600h-233z" />
<glyph unicode="n" horiz-adv-x="1046" d="M113 0v1016h221v-127q97 151 278 151q122 0 210.5 -77t107.5 -226q8 -68 8 -178v-559h-233v582q0 123 -37.5 185t-126.5 62q-95 0 -145 -64t-50 -165v-600h-233z" />
<glyph unicode="o" horiz-adv-x="1083" d="M63 496q0 122 39.5 225.5t107 172.5t156.5 107.5t187 38.5q97 0 182 -35.5t148.5 -100t100 -163.5t36.5 -219q0 -119 -39 -221.5t-105.5 -172t-156 -109t-189.5 -39.5q-211 0 -339 145t-128 371zM307 506q0 -134 62.5 -232t171.5 -98q105 0 170 90t65 244q0 134 -62 231 t-171 97q-108 0 -172 -89t-64 -243z" />
<glyph unicode="p" horiz-adv-x="1048" d="M113 -352v1368h227v-125q49 69 126.5 108t154.5 39q170 0 271 -131t101 -370q0 -154 -59 -277.5t-172 -196.5t-262 -73q-70 0 -152 20v-362h-235zM346 217q63 -29 133 -29q126 0 197.5 95.5t71.5 265.5q0 135 -55 210t-136 75q-94 0 -152.5 -70.5t-58.5 -175.5v-371z" />
<glyph unicode="q" horiz-adv-x="1054" d="M61 479q0 252 148.5 403.5t408.5 151.5q148 0 324 -63v-1323h-235v469q-50 -64 -123.5 -96.5t-151.5 -32.5q-75 0 -141 31t-118 90t-82 154.5t-30 215.5zM307 469q0 -134 54.5 -205t136.5 -71q90 0 150.5 72.5t60.5 170.5v371q-63 29 -134 29q-126 0 -197 -98t-71 -269z " />
<glyph unicode="r" horiz-adv-x="673" d="M113 0v1016h221v-160q50 79 128 129t171 53v-223q-144 -6 -215.5 -85t-71.5 -222v-508h-233z" />
<glyph unicode="s" horiz-adv-x="841" d="M45 66l64 192q188 -82 307 -82q139 0 139 107q0 35 -27 61t-70 43.5t-95 34t-104.5 40t-95.5 54.5t-70 84t-27 123q0 142 98.5 228.5t267.5 86.5q174 0 326 -73l-58 -187q-158 60 -270 60q-68 0 -102.5 -27.5t-34.5 -69.5q0 -32 21 -56.5t56 -39t79 -31t90.5 -31 t90.5 -40t79 -56.5t56 -82t21 -116q0 -138 -105.5 -226t-272.5 -88q-194 0 -363 91z" />
<glyph unicode="t" horiz-adv-x="655" d="M35 821v195h155v370h234v-370h197v-195h-197v-821h-234v821h-155z" />
<glyph unicode="u" horiz-adv-x="1038" d="M104 416v600h236v-610q0 -124 51.5 -177t128.5 -53q178 0 178 230v610h236v-600q0 -115 -35.5 -202.5t-96 -138t-133.5 -75.5t-155 -25q-81 0 -152 24t-130 73.5t-93.5 137.5t-34.5 206z" />
<glyph unicode="v" horiz-adv-x="991" d="M2 1016h258l238 -680l237 680h254l-393 -1016h-205z" />
<glyph unicode="w" horiz-adv-x="1490" d="M0 1016h242l204 -699l218 695h176l215 -690l192 694h242l-328 -1016h-207l-206 666l-213 -666h-209z" />
<glyph unicode="x" horiz-adv-x="985" d="M2 0l369 508l-348 508h262l221 -322l221 322h238l-347 -481l369 -535h-272q-32 50 -125.5 187.5t-106.5 160.5q-33 -47 -114.5 -165.5t-126.5 -182.5h-240z" />
<glyph unicode="y" horiz-adv-x="1024" d="M2 1016h266l260 -680l236 680h258l-518 -1368h-264l159 385z" />
<glyph unicode="z" horiz-adv-x="874" d="M51 0v125l455 702h-449v189h756v-127l-455 -694h461v-195h-768z" />
<glyph unicode="{" horiz-adv-x="585" d="M57 600q63 58 80 96.5t17 120.5v508q0 114 48 167.5t146 53.5h205v-196h-70q-110 0 -110 -90v-476q0 -74 -17.5 -111t-70.5 -73q53 -36 70.5 -73.5t17.5 -110.5v-479q0 -91 98 -91h82v-198h-205q-194 0 -194 233v500q0 74 -18 117t-79 102z" />
<glyph unicode="|" horiz-adv-x="626" d="M201 -160v1704h223v-1704h-223z" />
<glyph unicode="}" horiz-adv-x="577" d="M31 -154h84q51 0 73.5 21.5t22.5 69.5v479q0 73 18 111t70 73q-53 37 -70.5 74t-17.5 110v476q0 51 -27.5 70.5t-81.5 19.5h-71v196h207q100 0 146 -53.5t46 -167.5v-508q0 -82 16.5 -120.5t79.5 -96.5q-61 -58 -78.5 -101.5t-17.5 -117.5v-500q0 -233 -192 -233h-207 v198z" />
<glyph unicode="~" horiz-adv-x="1208" d="M94 424q27 140 106.5 221.5t198.5 81.5q53 0 115 -22.5t108.5 -50t98.5 -50t88 -22.5q42 0 76 44t51 101l184 -47q-27 -141 -104 -222t-195 -81q-61 0 -125 22t-107.5 48.5t-93.5 48.5t-87 22q-43 0 -79.5 -42.5t-56.5 -98.5z" />
<glyph unicode="&#xa1;" horiz-adv-x="518" d="M119 903q0 57 40 97t97 40t97 -40t40 -97q0 -59 -40 -100t-97 -41t-97 41t-40 100zM123 -352l16 979h234l16 -979h-266z" />
<glyph unicode="&#xa2;" horiz-adv-x="841" d="M63 487q0 179 98.5 330t264.5 199v241h205v-223q86 -10 160 -35l-41 -202q-74 32 -154 32q-131 0 -211 -98t-80 -233q0 -138 74.5 -221.5t193.5 -83.5q101 0 181 38l39 -198q-57 -25 -162 -43v-236h-205v238q-167 30 -265 169t-98 326z" />
<glyph unicode="&#xa3;" horiz-adv-x="1024" d="M35 520v195h160l41 303q25 174 128.5 280.5t282.5 106.5q145 0 289 -74l-66 -190q-116 45 -200 45t-132 -49t-67 -148q-5 -26 -35 -274h260v-195h-286q-23 -172 -56 -325h568v-195h-873q46 159 73 273t44 247h-131z" />
<glyph unicode="&#xa4;" horiz-adv-x="1024" d="M55 180l142 142q-50 86 -50 192q0 105 48 188l-140 144l127 127l140 -144q79 48 190 48q109 0 188 -48l142 144l127 -127l-144 -144q49 -85 49 -188q0 -105 -49 -190l144 -144l-127 -127l-144 146q-79 -45 -186 -45t-188 43l-142 -144zM344 510q0 -78 44 -135.5 t124 -57.5t124 57.5t44 137.5q0 82 -44 141.5t-124 59.5q-79 0 -123.5 -61t-44.5 -142z" />
<glyph unicode="&#xa5;" horiz-adv-x="1175" d="M49 1366h260l287 -500l274 500h254l-344 -598h262v-180h-327v-139h327v-177h-327v-272h-244v272h-332v177h332v139h-332v180h258z" />
<glyph unicode="&#xa6;" horiz-adv-x="626" d="M201 -158v674h223v-674h-223zM201 872v674h223v-674h-223z" />
<glyph unicode="&#xa7;" horiz-adv-x="1208" d="M145 631q0 91 45 185t115 157q-98 110 -98 244q0 142 104 245t277 103q167 0 370 -88l-67 -197q-83 32 -113.5 43t-83 23t-100.5 12q-68 0 -110 -43t-42 -101q0 -49 29.5 -89.5t116.5 -80.5q28 -13 73.5 -32t79 -32.5t76.5 -36t73.5 -44.5t63 -56t52.5 -72.5t32.5 -92.5 t12.5 -117q0 -91 -46 -184.5t-116 -159.5q98 -107 98 -242q0 -68 -26 -130.5t-73.5 -111t-120.5 -77.5t-161 -29q-167 0 -368 90l65 197q76 -36 156 -57t141 -21q68 0 110 41.5t42 99.5q0 107 -148 170q-26 11 -73 30t-78.5 32t-75.5 36t-73.5 45t-62 57t-52 74t-32 93 t-12.5 117zM375 631q0 -41 8.5 -74t28.5 -58.5t40 -44t55.5 -36t60 -28t70 -28t71.5 -28.5q46 37 78 101.5t32 125.5q0 50 -15.5 89.5t-36.5 64t-59.5 47.5t-68 34.5t-79 30.5t-77.5 31q-45 -38 -76.5 -102.5t-31.5 -124.5z" />
<glyph unicode="&#xa8;" horiz-adv-x="1079" d="M205 1303q0 51 36 86.5t87 35.5t86 -35.5t35 -86.5t-35 -88t-86 -37t-87 37t-36 88zM629 1303q0 51 36 86.5t87 35.5q50 0 85 -35.5t35 -86.5t-35.5 -88t-84.5 -37q-51 0 -87 37t-36 88z" />
<glyph unicode="&#xa9;" horiz-adv-x="1636" d="M94 692q0 136 46 261t133.5 226.5t229 162.5t316.5 61q141 0 260.5 -40t203.5 -108.5t143 -159.5t87.5 -193t28.5 -210t-28.5 -211t-88 -195t-143.5 -161t-203.5 -109.5t-259.5 -40.5t-259.5 40.5t-204 109.5t-144.5 161t-88.5 195t-28.5 211zM258 692q0 -109 36 -209 t104 -180t177 -128t244 -48q134 0 243 48t176.5 128t103.5 180t36 209q0 84 -22 163.5t-68 151t-111 125t-157 84.5t-201 31q-136 0 -245.5 -47.5t-177 -127t-103 -177t-35.5 -203.5zM403 682q0 88 29 170t81.5 147t134 104.5t179.5 39.5q84 0 217 -43l-36 -150 q-6 2 -21.5 6.5t-21 6t-18.5 5t-19.5 5t-18 4t-19.5 3.5t-18.5 2.5t-21 2t-21.5 0.5q-111 0 -178 -89t-67 -212q0 -130 71 -205.5t195 -75.5q68 0 160 39l30 -151q-113 -49 -211 -49q-191 0 -308.5 125t-117.5 315z" />
<glyph unicode="&#xaa;" horiz-adv-x="804" d="M104 993q0 230 394 246q-1 78 -28 108.5t-91 30.5q-75 0 -199 -47l-37 139q53 24 121.5 43t120.5 19q154 0 222.5 -72.5t68.5 -245.5v-407h-172v63q-76 -73 -185 -73q-98 0 -156.5 53.5t-58.5 142.5zM285 1004q0 -30 24 -50t56 -20q57 0 95 35t38 92v55 q-213 -11 -213 -112z" />
<glyph unicode="&#xab;" horiz-adv-x="1122" d="M82 545l383 454l139 -112l-270 -342l270 -344l-139 -113zM504 545l381 454l143 -110l-272 -344q44 -58 272 -344l-143 -113z" />
<glyph unicode="&#xac;" d="M133 444v185h1006v-502h-205v317h-801z" />
<glyph unicode="&#xad;" horiz-adv-x="561" d="M45 430v209h467v-209h-467z" />
<glyph unicode="&#xae;" horiz-adv-x="1636" d="M94 692q0 136 46 261t133.5 226.5t229 162.5t316.5 61q141 0 260.5 -40t203.5 -108.5t143 -159.5t87.5 -193t28.5 -210t-28.5 -211t-88 -195t-143.5 -161t-203.5 -109.5t-259.5 -40.5t-259.5 40.5t-204 109.5t-144.5 161t-88.5 195t-28.5 211zM258 692q0 -109 36 -209 t104 -180t177 -128t244 -48q134 0 243 48t176.5 128t103.5 180t36 209q0 84 -22 163.5t-68 151t-111 125t-157 84.5t-201 31q-136 0 -245.5 -47.5t-177 -127t-103 -177t-35.5 -203.5zM555 258v870h272q145 0 221 -68t76 -186q0 -91 -49 -159.5t-141 -98.5 q36 -59 117.5 -201.5t89.5 -156.5h-199q-117 220 -180 324h-39v-324h-168zM723 729h88q59 0 96 38t37 101q0 121 -143 121h-78v-260z" />
<glyph unicode="&#xaf;" horiz-adv-x="833" d="M123 1219v174h586v-174h-586z" />
<glyph unicode="&#xb0;" horiz-adv-x="890" d="M123 1112q0 101 47.5 175.5t118.5 109.5t153 35q130 0 227 -85.5t97 -234.5q0 -77 -28 -139t-74.5 -100.5t-103.5 -59t-118 -20.5q-128 0 -223.5 85t-95.5 234zM305 1112q0 -65 40.5 -104t98.5 -39q57 0 97.5 40.5t40.5 104.5t-40 102.5t-98 38.5t-98.5 -39.5 t-40.5 -103.5z" />
<glyph unicode="&#xb1;" d="M109 705v180h428v420h196v-420h428v-180h-428v-420h-196v420h-428zM119 4v180h1032v-180h-1032z" />
<glyph unicode="&#xb2;" horiz-adv-x="882" d="M111 1425q165 127 335 127q130 0 211.5 -80.5t81.5 -197.5q0 -113 -78 -228t-251 -266h364v-174h-659v129q8 5 17 12.5t26 23.5t34 32.5t54 51.5t73 69q110 102 155.5 174.5t45.5 146.5q0 48 -33 82.5t-86 34.5q-89 0 -198 -84z" />
<glyph unicode="&#xb3;" horiz-adv-x="800" d="M92 662q7 16 37.5 74.5t38.5 78.5q111 -63 190 -63q68 0 106 37t38 96q0 46 -37 77t-92 31h-140v152h132q53 0 84.5 35.5t31.5 81.5q0 50 -31 79t-85 29q-85 0 -191 -59l-65 145q57 42 135 64t157 22q118 0 198.5 -66.5t80.5 -175.5q0 -71 -33.5 -126.5t-91.5 -88.5 q69 -24 111.5 -85.5t42.5 -131.5q0 -124 -91.5 -207t-240.5 -83q-67 0 -143.5 22.5t-141.5 61.5z" />
<glyph unicode="&#xb4;" horiz-adv-x="1079" d="M410 1135l161 317h291l-248 -317h-204z" />
<glyph unicode="&#xb5;" horiz-adv-x="1046" d="M113 -352v1368h233v-602q0 -100 50.5 -164t144.5 -64q89 0 126.5 61.5t37.5 184.5v584h233v-561q0 -108 -8 -179q-19 -148 -107.5 -224.5t-210.5 -76.5q-82 0 -150.5 36t-115.5 100v-463h-233z" />
<glyph unicode="&#xb6;" horiz-adv-x="1261" d="M37 946q0 84 30 160.5t88 139.5t153 100.5t214 37.5h686v-198h-141v-1538h-209v1538h-166v-1538h-209v856q-109 6 -196 46t-140.5 102.5t-81.5 137.5t-28 156z" />
<glyph unicode="&#xb7;" horiz-adv-x="520" d="M123 690q0 58 40 98.5t97 40.5t97 -40.5t40 -98.5q0 -57 -40 -98t-97 -41t-97 41t-40 98z" />
<glyph unicode="&#xb8;" horiz-adv-x="954" d="M289 -322l45 105q85 -33 131 -33q28 0 42.5 11.5t14.5 29.5q0 55 -151 76l63 156h148q-3 -6 -19 -41t-18 -39l6 -2q168 -33 168 -158q0 -65 -56.5 -112.5t-160.5 -47.5q-113 0 -213 55z" />
<glyph unicode="&#xb9;" horiz-adv-x="608" d="M82 1358v176h393v-930h-217v754h-176z" />
<glyph unicode="&#xba;" horiz-adv-x="851" d="M88 1157q0 170 100.5 274.5t243.5 104.5q141 0 234.5 -97t93.5 -263q0 -167 -100 -273t-244 -106q-149 0 -238.5 101t-89.5 259zM274 1165q0 -88 40 -152.5t108 -64.5q67 0 109 59.5t42 159.5q0 86 -40 150.5t-111 64.5q-67 0 -107.5 -58.5t-40.5 -158.5z" />
<glyph unicode="&#xbb;" horiz-adv-x="1122" d="M82 201q228 286 272 344l-272 344l143 110l381 -454l-381 -457zM506 201l270 344l-270 342l139 112l383 -454l-383 -457z" />
<glyph unicode="&#xbc;" horiz-adv-x="1886" d="M145 1358v176h394v-930h-217v754h-177zM295 0l977 1532h221l-977 -1532h-221zM995 225v131l369 578h256v-537h121v-172h-119v-225h-203v225h-424zM1190 397h231v369z" />
<glyph unicode="&#xbd;" horiz-adv-x="1886" d="M104 1358v176h394v-930h-217v754h-177zM254 0l977 1532h221l-977 -1532h-221zM1118 823q165 127 336 127q130 0 211.5 -80.5t81.5 -197.5q0 -113 -79 -230t-251 -268h365v-174h-660v129q25 19 60 51q175 158 260.5 264.5t85.5 198.5q0 48 -33 82.5t-86 34.5 q-90 0 -199 -84z" />
<glyph unicode="&#xbe;" horiz-adv-x="1886" d="M92 662l76 151q111 -63 190 -63q69 0 106.5 38.5t37.5 94.5q0 47 -36.5 77.5t-92.5 30.5h-140v152h132q45 0 80.5 37t35.5 82q0 49 -31 77.5t-85 28.5q-88 0 -191 -57l-65 145q57 40 135 62t157 22q118 0 198.5 -65.5t80.5 -176.5q0 -70 -33.5 -126t-91.5 -87 q70 -26 112 -87t42 -132q0 -124 -91.5 -206t-240.5 -82q-68 0 -144.5 22t-140.5 62zM369 0l977 1534h221l-977 -1534h-221zM1071 225v131l369 578h256v-537h121v-172h-119v-225h-203v225h-424zM1266 397h231v369z" />
<glyph unicode="&#xbf;" horiz-adv-x="952" d="M78 -14q0 141 117 268l133 129q63 61 84 107t20 137h223q11 -57 11 -90q0 -160 -146 -293l-102 -92q-84 -84 -84 -164q0 -70 47 -105t121 -35q122 0 309 101l76 -193q-208 -133 -422 -133q-165 0 -276 96.5t-111 266.5zM393 901q0 58 40 98.5t97 40.5t97.5 -40.5 t40.5 -98.5q0 -57 -40.5 -98t-97.5 -41t-97 41t-40 98z" />
<glyph unicode="&#xc0;" horiz-adv-x="1280" d="M4 0q340 930 508 1395h268q82 -233 248 -698t248 -697h-275l-118 356h-492q-71 -217 -119 -356h-268zM281 1808h290l162 -317h-205zM453 543h370l-184 557z" />
<glyph unicode="&#xc1;" horiz-adv-x="1280" d="M4 0l508 1395h268l496 -1395h-275l-118 356h-492l-119 -356h-268zM453 543h370l-184 557zM543 1491l162 317h288l-248 -317h-202z" />
<glyph unicode="&#xc2;" horiz-adv-x="1280" d="M4 0l508 1395h268l496 -1395h-275l-118 356h-492l-119 -356h-268zM326 1491l180 317h270l180 -317h-188l-125 166l-125 -166h-192zM453 543h370l-184 557z" />
<glyph unicode="&#xc3;" horiz-adv-x="1280" d="M4 0q340 930 508 1395h268q82 -233 248 -698t248 -697h-275l-118 356h-492q-71 -217 -119 -356h-268zM299 1503v51q0 98 53 162t146 64q51 0 103 -25t94.5 -49.5t70.5 -24.5q59 0 59 99h154v-47q0 -104 -51.5 -168t-147.5 -64q-38 0 -78.5 16t-69.5 35.5t-62 35.5t-58 16 q-23 0 -37 -18t-18 -38.5t-4 -44.5h-154zM453 543h370l-184 557z" />
<glyph unicode="&#xc4;" horiz-adv-x="1280" d="M4 0l508 1395h268l496 -1395h-275l-118 356h-492l-119 -356h-268zM307 1640q0 51 36 86t87 35q50 0 85.5 -35t35.5 -86t-35.5 -87.5t-85.5 -36.5q-51 0 -87 36.5t-36 87.5zM453 543h370l-184 557zM731 1640q0 51 35.5 86t85.5 35q51 0 86 -35t35 -86t-35 -87.5t-86 -36.5 q-50 0 -85.5 36.5t-35.5 87.5z" />
<glyph unicode="&#xc5;" horiz-adv-x="1277" d="M4 0l508 1395h268l496 -1395h-275l-118 356h-492l-119 -356h-268zM434 1647q0 89 61 145.5t144 56.5q86 0 147.5 -56t61.5 -146q0 -91 -62 -148t-147 -57q-83 0 -144 58t-61 147zM453 543h370l-184 557zM545 1645q0 -44 29 -73.5t67 -29.5q39 0 67.5 29.5t28.5 75.5 q0 44 -28 72t-68 28q-39 0 -67.5 -28.5t-28.5 -73.5z" />
<glyph unicode="&#xc6;" horiz-adv-x="1773" d="M-12 0q160 272 460.5 778t360.5 608h866v-208h-547v-381h486v-209h-486v-381h570v-207h-817v350h-424l-201 -350h-268zM563 537h318v555z" />
<glyph unicode="&#xc7;" horiz-adv-x="1073" d="M63 682q0 112 23.5 217t74.5 199t124 163.5t178 110.5t231 41q86 0 155 -13.5t173 -47.5l-51 -213q-4 1 -25.5 8t-26.5 8.5t-24 7.5t-25.5 7.5t-24 6t-27 5.5t-26.5 4t-30.5 3.5t-30.5 1.5t-35 1q-94 0 -166.5 -42t-115.5 -114.5t-64.5 -162t-21.5 -191.5 q0 -223 100.5 -353t302.5 -130q108 0 246 53q22 -120 39 -201q-157 -71 -320 -71q-5 0 -16 1t-16 1l-17 -39l6 -2q168 -33 168 -158q0 -65 -56.5 -112.5t-160.5 -47.5q-113 0 -213 55l45 105q85 -33 131 -33q28 0 43 11.5t15 29.5q0 55 -152 76l53 133q-221 53 -342 237 t-121 445z" />
<glyph unicode="&#xc8;" horiz-adv-x="1009" d="M117 0v1386h794v-208h-546v-381h485v-209h-485v-381h569v-207h-817zM250 1808h291l161 -317h-204z" />
<glyph unicode="&#xc9;" horiz-adv-x="1009" d="M117 0v1386h794v-208h-546v-381h485v-209h-485v-381h569v-207h-817zM375 1491l162 317h290l-247 -317h-205z" />
<glyph unicode="&#xca;" horiz-adv-x="999" d="M106 0v1386h795v-208h-547v-381h486v-209h-486v-381h570v-207h-818zM190 1491l181 317h270l180 -317h-190l-125 166l-125 -166h-191z" />
<glyph unicode="&#xcb;" horiz-adv-x="1009" d="M117 0v1386h794v-208h-546v-381h485v-209h-485v-381h569v-207h-817zM186 1638q0 51 36 87t87 36q50 0 85.5 -36t35.5 -87t-36 -88t-85 -37q-51 0 -87 37t-36 88zM610 1638q0 51 35.5 87t85.5 36q51 0 86 -36t35 -87t-35 -88t-86 -37q-49 0 -85 37t-36 88z" />
<glyph unicode="&#xcc;" horiz-adv-x="483" d="M-92 1808h289l161 -317h-202zM117 0v1386h248v-1386h-248z" />
<glyph unicode="&#xcd;" horiz-adv-x="483" d="M117 0v1386h248v-1386h-248zM123 1491l162 317h290l-247 -317h-205z" />
<glyph unicode="&#xce;" horiz-adv-x="483" d="M-72 1491l181 317h270l180 -317h-188l-125 166l-125 -166h-193zM117 0v1386h248v-1386h-248z" />
<glyph unicode="&#xcf;" horiz-adv-x="483" d="M-90 1642q0 51 36 86t87 35t86 -35t35 -86t-35 -87.5t-86 -36.5t-87 36.5t-36 87.5zM117 0v1386h248v-1386h-248zM334 1642q0 51 36 86t87 35q50 0 85.5 -35t35.5 -86t-35.5 -87.5t-85.5 -36.5q-51 0 -87 36.5t-36 87.5z" />
<glyph unicode="&#xd0;" horiz-adv-x="1236" d="M-18 598v195h137v593h360q151 0 271.5 -39t198 -103.5t128.5 -153.5t72.5 -182.5t21.5 -196.5q0 -333 -170 -522t-491 -189h-391v598h-137zM362 209h158q192 0 288.5 133t96.5 363t-110.5 351.5t-311.5 121.5h-121v-385h199v-195h-199v-389z" />
<glyph unicode="&#xd1;" horiz-adv-x="1267" d="M117 0v1386h227l576 -954v954h231v-1386h-217l-588 973v-973h-229zM291 1501v51q0 98 52.5 162t145.5 64q51 0 104.5 -25t97.5 -50.5t71 -25.5q55 0 55 101h154v-49q0 -103 -51.5 -166.5t-147.5 -63.5q-50 0 -101 25t-93.5 50t-73.5 25q-32 0 -46 -29.5t-14 -68.5h-153z " />
<glyph unicode="&#xd2;" horiz-adv-x="1380" d="M63 682q0 148 43.5 280t123 232.5t201 159.5t267.5 59q276 0 446.5 -193t170.5 -515q0 -157 -43.5 -290.5t-123.5 -231t-200.5 -153t-267.5 -55.5q-276 0 -446.5 195t-170.5 512zM322 690q0 -222 93 -359.5t269 -137.5q174 0 273.5 136.5t99.5 375.5q0 138 -38 246 t-121.5 175.5t-203.5 67.5q-180 0 -276 -137t-96 -367zM362 1808h289l162 -317h-203z" />
<glyph unicode="&#xd3;" horiz-adv-x="1380" d="M63 682q0 148 43.5 280t123 232.5t201 159.5t267.5 59q276 0 446.5 -193t170.5 -515q0 -157 -43.5 -290.5t-123.5 -231t-200.5 -153t-267.5 -55.5q-276 0 -446.5 195t-170.5 512zM322 690q0 -222 93 -359.5t269 -137.5q174 0 273.5 136.5t99.5 375.5q0 138 -38 246 t-121.5 175.5t-203.5 67.5q-180 0 -276 -137t-96 -367zM571 1489l162 317h289l-248 -317h-203z" />
<glyph unicode="&#xd4;" horiz-adv-x="1380" d="M63 682q0 148 43.5 280t123 232.5t201 159.5t267.5 59q276 0 446.5 -193t170.5 -515q0 -157 -43.5 -290.5t-123.5 -231t-200.5 -153t-267.5 -55.5q-276 0 -446.5 195t-170.5 512zM322 690q0 -222 93 -359.5t269 -137.5q174 0 273.5 136.5t99.5 375.5q0 138 -38 246 t-121.5 175.5t-203.5 67.5q-180 0 -276 -137t-96 -367zM369 1491l180 317h270l180 -317h-188l-125 166l-125 -166h-192z" />
<glyph unicode="&#xd5;" horiz-adv-x="1380" d="M63 682q0 148 43.5 280t123 232.5t201 159.5t267.5 59q276 0 446.5 -193t170.5 -515q0 -157 -43.5 -290.5t-123.5 -231t-200.5 -153t-267.5 -55.5q-276 0 -446.5 195t-170.5 512zM322 690q0 -222 93 -359.5t269 -137.5q174 0 273.5 136.5t99.5 375.5q0 138 -38 246 t-121.5 175.5t-203.5 67.5q-180 0 -276 -137t-96 -367zM348 1501v51q0 97 53.5 161.5t147.5 64.5q20 0 41.5 -4t35.5 -8t36.5 -15t30.5 -15.5t32.5 -19t28.5 -16.5q6 -2 20.5 -9t25.5 -10.5t19 -3.5q55 0 55 101h156v-47q0 -104 -51.5 -168t-147.5 -64q-39 0 -80.5 16 t-70 35.5t-61 35.5t-56.5 16q-49 0 -57 -68l-4 -33h-154z" />
<glyph unicode="&#xd6;" horiz-adv-x="1370" d="M63 682q0 148 43.5 280t123 232.5t201 159.5t267.5 59q276 0 446.5 -193t170.5 -515q0 -157 -43.5 -290.5t-123.5 -231t-200.5 -153t-267.5 -55.5q-276 0 -446.5 195t-170.5 512zM322 690q0 -222 93 -359.5t269 -137.5q174 0 273.5 136.5t99.5 375.5q0 138 -38 246 t-121.5 175.5t-203.5 67.5q-180 0 -276 -137t-96 -367zM354 1642q0 51 36 87t87 36q50 0 85.5 -36t35.5 -87t-35.5 -87.5t-85.5 -36.5q-51 0 -87 36.5t-36 87.5zM778 1642q0 51 35.5 87t85.5 36q51 0 86 -36t35 -87t-35 -87.5t-86 -36.5q-50 0 -85.5 36.5t-35.5 87.5z" />
<glyph unicode="&#xd7;" d="M168 205l330 332l-330 333l127 127l330 -333l329 333l127 -127l-329 -333l329 -332l-127 -127l-329 334l-330 -334z" />
<glyph unicode="&#xd8;" horiz-adv-x="1380" d="M63 682q0 148 43.5 280t123 232.5t201 159.5t267.5 59q173 0 314 -88l96 137l160 -106l-109 -160q156 -193 156 -491q0 -157 -43.5 -290.5t-123.5 -231t-200.5 -153t-267.5 -55.5q-170 0 -305 78l-88 -127l-160 107l100 145q-164 194 -164 504zM322 686q0 -171 59 -283 l502 732q-80 55 -189 55q-180 0 -276 -137t-96 -367zM502 238q77 -50 182 -50q174 0 273.5 136.5t99.5 375.5q0 158 -56 267z" />
<glyph unicode="&#xd9;" horiz-adv-x="1255" d="M117 481v905h248v-907q0 -138 70 -213.5t194 -75.5q129 0 194.5 75t65.5 212v909h248v-903q0 -248 -132.5 -375.5t-377.5 -127.5q-239 0 -374.5 128t-135.5 373zM324 1808h288l162 -317h-203z" />
<glyph unicode="&#xda;" horiz-adv-x="1255" d="M117 481v905h248v-907q0 -138 70 -213.5t194 -75.5q129 0 194.5 75t65.5 212v909h248v-903q0 -248 -132.5 -375.5t-377.5 -127.5q-239 0 -374.5 128t-135.5 373zM508 1491l162 317h291l-248 -317h-205z" />
<glyph unicode="&#xdb;" horiz-adv-x="1255" d="M117 481v905h248v-907q0 -138 70 -213.5t194 -75.5q129 0 194.5 75t65.5 212v909h248v-903q0 -248 -132.5 -375.5t-377.5 -127.5q-239 0 -374.5 128t-135.5 373zM309 1491l180 317h271l180 -317h-190l-125 166l-125 -166h-191z" />
<glyph unicode="&#xdc;" horiz-adv-x="1243" d="M117 481v905h248v-907q0 -138 70 -213.5t194 -75.5q129 0 194.5 75t65.5 212v909h248v-903q0 -248 -132.5 -375.5t-377.5 -127.5q-239 0 -374.5 128t-135.5 373zM295 1636q0 51 36 86t87 35t86 -35t35 -86t-35 -88t-86 -37t-87 37t-36 88zM719 1636q0 51 36 86t87 35 q50 0 85.5 -35t35.5 -86t-36 -88t-85 -37q-51 0 -87 37t-36 88z" />
<glyph unicode="&#xdd;" horiz-adv-x="1128" d="M-20 1386h284l311 -571l297 571h277l-457 -833v-553h-250v553zM475 1491l162 317h291l-248 -317h-205z" />
<glyph unicode="&#xde;" horiz-adv-x="1071" d="M117 0v1386h245v-243h170q225 0 351.5 -110.5t126.5 -301.5q0 -210 -130 -330t-348 -120h-170v-281h-245zM362 481h173q102 0 161.5 66t59.5 168t-58.5 163.5t-173.5 61.5h-162v-459z" />
<glyph unicode="&#xdf;" horiz-adv-x="1095" d="M94 0v1176q0 166 121 273t311 107q99 0 179.5 -30.5t132 -82.5t79 -118.5t27.5 -140.5q0 -97 -44 -182t-130 -142q126 -43 192 -152.5t66 -250.5q0 -206 -111.5 -339.5t-289.5 -133.5q-95 0 -219 53l38 194q85 -34 146 -34q63 0 107.5 38t64.5 95t20 125q0 75 -23.5 140 t-76 109t-123.5 44h-121v192h101q74 0 116.5 68t42.5 153q0 87 -53.5 140t-130.5 53q-78 0 -132 -48.5t-54 -127.5v-1178h-236z" />
<glyph unicode="&#xe0;" horiz-adv-x="962" d="M45 262q0 326 578 348q0 128 -45 177t-150 49q-51 0 -129 -17t-145 -43l-48 180q69 33 165.5 57.5t172.5 24.5q219 0 315.5 -102.5t96.5 -349.5v-586h-223v119q-45 -57 -123.5 -95t-163.5 -38q-135 0 -218 76t-83 200zM174 1452h291l162 -317h-205zM281 276 q0 -55 37.5 -86.5t95.5 -31.5q90 0 150.5 55t60.5 145v95q-344 -11 -344 -177z" />
<glyph unicode="&#xe1;" horiz-adv-x="962" d="M45 262q0 326 578 348q0 129 -42.5 178.5t-146.5 49.5q-115 0 -280 -62l-48 180q69 33 165.5 57.5t172.5 24.5q219 0 315.5 -102.5t96.5 -349.5v-586h-223v119q-45 -57 -123.5 -95t-163.5 -38q-135 0 -218 76t-83 200zM281 276q0 -55 37.5 -86.5t95.5 -31.5 q90 0 150.5 55t60.5 145v95q-344 -11 -344 -177zM358 1135l162 317h291l-248 -317h-205z" />
<glyph unicode="&#xe2;" horiz-adv-x="962" d="M45 262q0 326 578 348q0 129 -42.5 178.5t-146.5 49.5q-115 0 -280 -62l-48 180q69 33 165.5 57.5t172.5 24.5q219 0 315.5 -102.5t96.5 -349.5v-586h-223v119q-45 -57 -123.5 -95t-163.5 -38q-135 0 -218 76t-83 200zM154 1135l180 317h270l180 -317h-188l-125 165 l-125 -165h-192zM281 276q0 -55 37.5 -86.5t95.5 -31.5q90 0 150.5 55t60.5 145v95q-344 -11 -344 -177z" />
<glyph unicode="&#xe3;" horiz-adv-x="962" d="M45 262q0 326 578 348q0 128 -45 177t-150 49q-51 0 -129 -17t-145 -43l-48 180q69 33 165.5 57.5t172.5 24.5q219 0 315.5 -102.5t96.5 -349.5v-586h-223v119q-45 -57 -123.5 -95t-163.5 -38q-135 0 -218 76t-83 200zM131 1149v51q0 97 53.5 161t147.5 64 q49 0 102.5 -25t96.5 -50t67 -25q59 0 59 100h156v-47q0 -104 -51 -167.5t-148 -63.5q-49 0 -100.5 25.5t-94.5 51t-73 25.5q-61 0 -61 -100h-154zM281 276q0 -55 37.5 -86.5t95.5 -31.5q90 0 150.5 55t60.5 145v95q-344 -11 -344 -177z" />
<glyph unicode="&#xe4;" horiz-adv-x="962" d="M45 262q0 326 578 348q0 129 -42.5 178.5t-146.5 49.5q-115 0 -280 -62l-48 180q69 33 165.5 57.5t172.5 24.5q219 0 315.5 -102.5t96.5 -349.5v-586h-223v119q-45 -57 -123.5 -95t-163.5 -38q-135 0 -218 76t-83 200zM133 1303q0 51 36 86.5t87 35.5t86 -35.5t35 -86.5 t-35 -88t-86 -37t-87 37t-36 88zM281 276q0 -55 37.5 -86.5t95.5 -31.5q90 0 150.5 55t60.5 145v95q-344 -11 -344 -177zM557 1303q0 51 36 86.5t87 35.5q50 0 85.5 -35.5t35.5 -86.5t-36 -88t-85 -37q-51 0 -87 37t-36 88z" />
<glyph unicode="&#xe5;" horiz-adv-x="962" d="M45 262q0 326 578 348q0 129 -42.5 178.5t-146.5 49.5q-115 0 -280 -62l-48 180q69 33 165.5 57.5t172.5 24.5q219 0 315.5 -102.5t96.5 -349.5v-586h-223v119q-45 -57 -123.5 -95t-163.5 -38q-135 0 -218 76t-83 200zM262 1303q0 89 61 145.5t144 56.5q86 0 147.5 -56 t61.5 -146q0 -91 -62 -148t-147 -57q-83 0 -144 58t-61 147zM281 276q0 -55 37.5 -86.5t95.5 -31.5q90 0 150.5 55t60.5 145v95q-344 -11 -344 -177zM373 1300q0 -44 29 -73t67 -29q39 0 67.5 29.5t28.5 75.5q0 44 -28 72t-68 28q-39 0 -67.5 -28.5t-28.5 -74.5z" />
<glyph unicode="&#xe6;" horiz-adv-x="1552" d="M45 262q0 325 588 344q0 128 -47 180t-152 52q-115 0 -280 -62l-48 180q69 33 165.5 57.5t172.5 24.5q127 0 209 -34.5t127 -110.5q116 143 305 143q197 0 300.5 -137t103.5 -369q0 -57 -4 -88h-625q6 -258 264 -258q52 0 107 12.5t87.5 25t86.5 36.5l57 -182 q-104 -50 -186.5 -74.5t-188.5 -24.5q-220 0 -339 158q-60 -69 -151 -109t-198 -40q-160 0 -257 76.5t-97 199.5zM281 276q0 -56 38.5 -87t102.5 -31q87 0 150 58t63 153v80q-354 -11 -354 -173zM864 606h398q0 105 -46.5 167.5t-140.5 62.5q-91 0 -145 -68.5t-66 -161.5z " />
<glyph unicode="&#xe7;" horiz-adv-x="825" d="M63 487q0 82 21.5 161.5t64.5 150t102.5 124t141 84.5t174.5 31q106 0 215 -41l-28 -200q-91 32 -162 32q-128 0 -207.5 -95t-79.5 -236q0 -82 28 -152t88.5 -116t141.5 -46q37 0 93.5 12t97.5 27q17 -131 26 -190q-93 -38 -219 -51l-16 -39l6 -2q168 -33 168 -158 q0 -65 -56.5 -112.5t-160.5 -47.5q-113 0 -213 55l45 105q85 -33 131 -33q28 0 42.5 11.5t14.5 29.5q0 55 -151 76l49 123q-164 35 -260.5 172.5t-96.5 324.5z" />
<glyph unicode="&#xe8;" horiz-adv-x="1003" d="M61 492q0 103 33.5 200t93.5 174t151 123.5t198 46.5q197 0 300 -137t103 -369q0 -57 -4 -88h-639q11 -258 278 -258q52 0 107 12.5t87.5 25t86.5 36.5l57 -182q-207 -99 -383 -99q-99 0 -182.5 31t-148.5 92t-101.5 161.5t-36.5 230.5zM211 1452h289l162 -317h-203z M301 606h412q0 105 -46.5 167.5t-140.5 62.5q-92 0 -152.5 -70t-72.5 -160z" />
<glyph unicode="&#xe9;" horiz-adv-x="1003" d="M61 492q0 103 33.5 200t93.5 174t151 123.5t198 46.5q197 0 300 -137t103 -369q0 -57 -4 -88h-639q11 -258 278 -258q52 0 107 12.5t87.5 25t86.5 36.5l57 -182q-207 -99 -383 -99q-99 0 -182.5 31t-148.5 92t-101.5 161.5t-36.5 230.5zM301 606h412q0 105 -46.5 167.5 t-140.5 62.5q-92 0 -152.5 -70t-72.5 -160zM410 1135l161 317h291l-248 -317h-204z" />
<glyph unicode="&#xea;" horiz-adv-x="1003" d="M61 492q0 103 33.5 200t93.5 174t151 123.5t198 46.5q197 0 300 -137t103 -369q0 -57 -4 -88h-639q11 -258 278 -258q52 0 107 12.5t87.5 25t86.5 36.5l57 -182q-207 -99 -383 -99q-99 0 -182.5 31t-148.5 92t-101.5 161.5t-36.5 230.5zM199 1135l180 317h270l180 -317 h-190l-125 165l-125 -165h-190zM301 606h412q0 105 -46.5 167.5t-140.5 62.5q-92 0 -152.5 -70t-72.5 -160z" />
<glyph unicode="&#xeb;" horiz-adv-x="1003" d="M61 492q0 103 33.5 200t93.5 174t151 123.5t198 46.5q197 0 300 -137t103 -369q0 -57 -4 -88h-639q11 -258 278 -258q52 0 107 12.5t87.5 25t86.5 36.5l57 -182q-207 -99 -383 -99q-99 0 -182.5 31t-148.5 92t-101.5 161.5t-36.5 230.5zM190 1303q0 51 36 86.5t87 35.5 t86 -35.5t35 -86.5t-35 -88t-86 -37t-87 37t-36 88zM301 606h412q0 105 -46.5 167.5t-140.5 62.5q-92 0 -152.5 -70t-72.5 -160zM614 1303q0 51 36 86.5t87 35.5q50 0 85.5 -35.5t35.5 -86.5t-36 -88t-85 -37q-51 0 -87 37t-36 88z" />
<glyph unicode="&#xec;" horiz-adv-x="460" d="M-109 1452h289l162 -317h-203zM113 0v1016h233v-1016h-233z" />
<glyph unicode="&#xed;" horiz-adv-x="460" d="M113 0v1016h233v-1016h-233zM113 1135l161 317h289l-248 -317h-202z" />
<glyph unicode="&#xee;" horiz-adv-x="460" d="M-84 1135l180 317h271l180 -317h-191l-125 165l-125 -165h-190zM113 0v1016h233v-1016h-233z" />
<glyph unicode="&#xef;" horiz-adv-x="460" d="M-94 1303q0 51 36 86.5t87 35.5t86 -35.5t35 -86.5t-35 -88t-86 -37t-87 37t-36 88zM113 0v1016h233v-1016h-233zM309 1303q0 51 36 86.5t87 35.5q50 0 85.5 -35.5t35.5 -86.5t-36 -88t-85 -37q-51 0 -87 37t-36 88z" />
<glyph unicode="&#xf0;" horiz-adv-x="1112" d="M84 500q0 95 27.5 182t78 156t131 110t179.5 41q147 0 252 -108q-54 190 -185 307l-170 -109l-110 121l129 80q-116 50 -262 66l45 196q226 -5 415 -119l154 99l102 -129l-118 -74q129 -130 192.5 -318t63.5 -413q0 -286 -122.5 -448.5t-338.5 -162.5q-109 0 -198 43 t-146 116t-88 166.5t-31 197.5zM330 504q0 -64 13 -121.5t38.5 -103t67 -72.5t94.5 -27q108 0 167.5 89t59.5 227q0 125 -57 211t-166 86q-103 0 -160 -80t-57 -209z" />
<glyph unicode="&#xf1;" horiz-adv-x="1046" d="M113 0v1016h221v-127q97 151 278 151q122 0 210.5 -77t107.5 -226q8 -68 8 -178v-559h-233v522q0 156 -39 231.5t-125 75.5q-95 0 -145 -64t-50 -165v-600h-233zM182 1149v51q0 98 52.5 161.5t146.5 63.5q51 0 105 -25t96.5 -50t66.5 -25q60 0 60 100h153v-47 q0 -104 -51 -167.5t-147 -63.5q-49 0 -103.5 25.5t-98.5 51t-67 25.5q-32 0 -45.5 -30t-13.5 -70h-154z" />
<glyph unicode="&#xf2;" horiz-adv-x="1083" d="M63 496q0 122 39.5 225.5t107 172.5t156.5 107.5t187 38.5q97 0 182 -35.5t148.5 -100t100 -163.5t36.5 -219q0 -119 -39 -221.5t-105.5 -172t-156 -109t-189.5 -39.5q-211 0 -339 145t-128 371zM215 1452h291l162 -317h-205zM307 506q0 -134 62.5 -232t171.5 -98 q105 0 170 90t65 244q0 134 -62 231t-171 97q-108 0 -172 -89t-64 -243z" />
<glyph unicode="&#xf3;" horiz-adv-x="1083" d="M63 496q0 122 39.5 225.5t107 172.5t156.5 107.5t187 38.5q97 0 182 -35.5t148.5 -100t100 -163.5t36.5 -219q0 -119 -39 -221.5t-105.5 -172t-156 -109t-189.5 -39.5q-211 0 -339 145t-128 371zM307 506q0 -134 62.5 -232t171.5 -98q105 0 170 90t65 244q0 134 -62 231 t-171 97q-108 0 -172 -89t-64 -243zM410 1135l161 317h291l-248 -317h-204z" />
<glyph unicode="&#xf4;" horiz-adv-x="1083" d="M63 496q0 122 39.5 225.5t107 172.5t156.5 107.5t187 38.5q97 0 182 -35.5t148.5 -100t100 -163.5t36.5 -219q0 -119 -39 -221.5t-105.5 -172t-156 -109t-189.5 -39.5q-211 0 -339 145t-128 371zM223 1135l180 317h271l180 -317h-190l-125 165l-125 -165h-191zM307 506 q0 -134 62.5 -232t171.5 -98q105 0 170 90t65 244q0 134 -62 231t-171 97q-108 0 -172 -89t-64 -243z" />
<glyph unicode="&#xf5;" horiz-adv-x="1083" d="M63 496q0 122 39.5 225.5t107 172.5t156.5 107.5t187 38.5q97 0 182 -35.5t148.5 -100t100 -163.5t36.5 -219q0 -119 -39 -221.5t-105.5 -172t-156 -109t-189.5 -39.5q-211 0 -339 145t-128 371zM197 1149v51q0 97 53 161t147 64q50 0 101 -24.5t93.5 -49t72.5 -24.5 q59 0 59 98h156v-47q0 -104 -51 -167.5t-148 -63.5q-28 0 -59.5 9t-48 16.5t-56.5 30t-51 28.5q-6 2 -17 6t-18.5 6t-15.5 2q-64 0 -64 -96h-153zM307 506q0 -134 62.5 -232t171.5 -98q105 0 170 90t65 244q0 134 -62 231t-171 97q-108 0 -172 -89t-64 -243z" />
<glyph unicode="&#xf6;" horiz-adv-x="1083" d="M63 496q0 122 39.5 225.5t107 172.5t156.5 107.5t187 38.5q97 0 182 -35.5t148.5 -100t100 -163.5t36.5 -219q0 -119 -39 -221.5t-105.5 -172t-156 -109t-189.5 -39.5q-211 0 -339 145t-128 371zM205 1303q0 51 36 86.5t87 35.5t86 -35.5t35 -86.5t-35 -88t-86 -37 t-87 37t-36 88zM307 506q0 -134 62.5 -232t171.5 -98q105 0 170 90t65 244q0 134 -62 231t-171 97q-108 0 -172 -89t-64 -243zM629 1303q0 51 36 86.5t87 35.5q50 0 85 -35.5t35 -86.5t-35.5 -88t-84.5 -37q-51 0 -87 37t-36 88z" />
<glyph unicode="&#xf7;" d="M109 444v183h1052v-183h-1052zM510 160q0 54 36 90.5t89 36.5q52 0 88.5 -37t36.5 -90q0 -54 -36 -90.5t-89 -36.5t-89 36.5t-36 90.5zM510 911q0 54 36 90.5t89 36.5q52 0 88.5 -37t36.5 -90q0 -54 -36 -90.5t-89 -36.5t-89 36.5t-36 90.5z" />
<glyph unicode="&#xf8;" horiz-adv-x="1083" d="M63 496q0 122 39.5 225.5t107 172.5t156.5 107.5t187 38.5q124 0 227 -59l64 94q18 -13 61.5 -42t65.5 -46l-72 -102q121 -140 121 -363q0 -119 -39 -221.5t-105.5 -172t-156 -109t-189.5 -39.5q-124 0 -221 51l-65 -94l-125 86l69 102q-125 140 -125 371zM307 506 q0 -92 39 -154q118 173 309 449q-58 35 -118 35q-104 0 -167 -90.5t-63 -239.5zM432 209q51 -33 109 -33q103 0 169 92t66 242q0 80 -35 145z" />
<glyph unicode="&#xf9;" horiz-adv-x="1038" d="M104 416v600h236v-610q0 -124 51.5 -177t128.5 -53q178 0 178 230v610h236v-600q0 -115 -35.5 -202.5t-96 -138t-133.5 -75.5t-155 -25q-81 0 -152 24t-130 73.5t-93.5 137.5t-34.5 206zM188 1452h289l162 -317h-203z" />
<glyph unicode="&#xfa;" horiz-adv-x="1038" d="M104 416v600h236v-610q0 -124 51.5 -177t128.5 -53q178 0 178 230v610h236v-600q0 -115 -35.5 -202.5t-96 -138t-133.5 -75.5t-155 -25q-81 0 -152 24t-130 73.5t-93.5 137.5t-34.5 206zM385 1135l162 317h289l-248 -317h-203z" />
<glyph unicode="&#xfb;" horiz-adv-x="1038" d="M104 416v600h236v-610q0 -124 51.5 -177t128.5 -53q178 0 178 230v610h236v-600q0 -115 -35.5 -202.5t-96 -138t-133.5 -75.5t-155 -25q-81 0 -152 24t-130 73.5t-93.5 137.5t-34.5 206zM197 1135l180 317h270l180 -317h-190l-125 165l-125 -165h-190z" />
<glyph unicode="&#xfc;" horiz-adv-x="1038" d="M104 416v600h236v-610q0 -124 51.5 -177t128.5 -53q178 0 178 230v610h236v-600q0 -115 -35.5 -202.5t-96 -138t-133.5 -75.5t-155 -25q-81 0 -152 24t-130 73.5t-93.5 137.5t-34.5 206zM186 1303q0 51 36 86.5t87 35.5q50 0 85.5 -35.5t35.5 -86.5t-36 -88t-85 -37 q-51 0 -87 37t-36 88zM610 1303q0 51 35.5 86.5t85.5 35.5q51 0 86 -35.5t35 -86.5t-35 -88t-86 -37q-49 0 -85 37t-36 88z" />
<glyph unicode="&#xfd;" horiz-adv-x="1003" d="M-8 1016h266l260 -680l236 680h258l-518 -1368h-265l160 385zM379 1135l162 317h288l-247 -317h-203z" />
<glyph unicode="&#xfe;" horiz-adv-x="1048" d="M113 -352v1898h233v-649q49 67 124.5 104t150.5 37q170 0 271 -131t101 -370q0 -154 -59 -277.5t-172 -196.5t-262 -73q-70 0 -152 20v-362h-235zM346 217q63 -29 133 -29q126 0 197.5 95.5t71.5 265.5q0 135 -55 210t-136 75q-94 0 -152.5 -70.5t-58.5 -175.5v-371z" />
<glyph unicode="&#xff;" horiz-adv-x="1003" d="M-8 1016h266l260 -680l236 680h258l-518 -1368h-265l160 385zM184 1303q0 51 36 86.5t87 35.5t86 -35.5t35 -86.5t-35 -88t-86 -37t-87 37t-36 88zM608 1303q0 51 36 86.5t87 35.5q50 0 85.5 -35.5t35.5 -86.5t-36 -88t-85 -37q-51 0 -87 37t-36 88z" />
<glyph unicode="&#x152;" horiz-adv-x="1869" d="M63 682q0 118 26.5 226t79 198.5t127 157t175.5 104t219 37.5q91 0 168 -29.5t129 -81.5v92h795v-208h-547v-381h485v-209h-485v-381h569v-207h-817v109q-124 -127 -315 -127q-276 0 -442.5 191t-166.5 509zM322 686q0 -145 37 -253t118 -172t199 -64q139 0 225 98.5 t86 251.5v311q0 153 -82 242.5t-219 89.5q-179 0 -271.5 -136.5t-92.5 -367.5z" />
<glyph unicode="&#x153;" horiz-adv-x="1705" d="M63 496q0 122 39 224.5t105 171t154 106.5t186 38q113 0 201.5 -47.5t144.5 -136.5q130 186 344 186q197 0 302.5 -139t105.5 -369q0 -49 -5 -88h-643q0 -129 78 -194.5t201 -65.5q76 0 140.5 20t142.5 56q7 -21 27.5 -84.5t31.5 -97.5q-207 -99 -385 -99 q-248 0 -365 177q-128 -174 -344 -174q-145 0 -251 70t-158 185.5t-52 260.5zM307 506q0 -86 24 -159.5t77 -122t127 -48.5q104 0 166.5 89.5t62.5 244.5q0 86 -24 158t-76.5 119t-126.5 47q-108 0 -169 -86.5t-61 -241.5zM999 606h416q0 105 -46.5 168.5t-139.5 63.5 t-155 -70.5t-75 -161.5z" />
<glyph unicode="&#x178;" horiz-adv-x="1128" d="M-20 1386h284l311 -571l297 571h277l-457 -833v-553h-250v553zM242 1647q0 51 36 85.5t87 34.5q50 0 85 -34.5t35 -85.5t-35.5 -88t-84.5 -37q-51 0 -87 37t-36 88zM666 1647q0 51 35 85.5t85 34.5q51 0 86 -34.5t35 -85.5t-35 -88t-86 -37q-49 0 -84.5 37t-35.5 88z" />
<glyph unicode="&#x2c6;" horiz-adv-x="1079" d="M223 1135l180 317h271l180 -317h-190l-125 165l-125 -165h-191z" />
<glyph unicode="&#x2dc;" horiz-adv-x="1079" d="M199 1149v51q0 97 53 161t147 64q50 0 104 -25t97 -50t68 -25q57 0 57 100h156v-47q0 -104 -51 -167.5t-148 -63.5q-49 0 -100 25.5t-94 51t-74 25.5q-62 0 -62 -100h-153z" />
<glyph unicode="&#x2000;" horiz-adv-x="924" />
<glyph unicode="&#x2001;" horiz-adv-x="1849" />
<glyph unicode="&#x2002;" horiz-adv-x="924" />
<glyph unicode="&#x2003;" horiz-adv-x="1849" />
<glyph unicode="&#x2004;" horiz-adv-x="616" />
<glyph unicode="&#x2005;" horiz-adv-x="462" />
<glyph unicode="&#x2006;" horiz-adv-x="308" />
<glyph unicode="&#x2007;" horiz-adv-x="308" />
<glyph unicode="&#x2008;" horiz-adv-x="231" />
<glyph unicode="&#x2009;" horiz-adv-x="369" />
<glyph unicode="&#x200a;" horiz-adv-x="102" />
<glyph unicode="&#x2010;" horiz-adv-x="561" d="M45 430v209h467v-209h-467z" />
<glyph unicode="&#x2011;" horiz-adv-x="561" d="M45 430v209h467v-209h-467z" />
<glyph unicode="&#x2012;" horiz-adv-x="561" d="M45 430v209h467v-209h-467z" />
<glyph unicode="&#x2013;" horiz-adv-x="1181" d="M111 436v201h960v-201h-960z" />
<glyph unicode="&#x2014;" horiz-adv-x="2177" d="M111 436v201h1955v-201h-1955z" />
<glyph unicode="&#x2018;" horiz-adv-x="542" d="M86 1040l158 506h207l-113 -506h-252z" />
<glyph unicode="&#x2019;" horiz-adv-x="538" d="M86 1040l113 506h252l-158 -506h-207z" />
<glyph unicode="&#x201a;" horiz-adv-x="538" d="M86 -264l113 508h252l-158 -508h-207z" />
<glyph unicode="&#x201c;" horiz-adv-x="921" d="M84 1040l168 506h207l-123 -506h-252zM475 1040l148 506h206l-102 -506h-252z" />
<glyph unicode="&#x201d;" horiz-adv-x="921" d="M84 1040l102 506h252l-147 -506h-207zM455 1040l123 506h251l-167 -506h-207z" />
<glyph unicode="&#x201e;" horiz-adv-x="921" d="M82 -266l104 510h252l-149 -510h-207zM453 -266l125 510h249l-168 -510h-206z" />
<glyph unicode="&#x2022;" horiz-adv-x="741" d="M82 516q0 121 78 213t211 92q70 0 126.5 -25.5t91 -68t52.5 -94.5t18 -109t-18.5 -110t-53 -95.5t-90.5 -68t-126 -25.5q-93 0 -160.5 43t-98 107.5t-30.5 140.5z" />
<glyph unicode="&#x2026;" horiz-adv-x="1560" d="M123 117q0 57 40 98t97 41t97 -41t40 -98q0 -58 -40 -99t-97 -41t-97 41t-40 99zM643 117q0 57 40 98t97 41t97.5 -41t40.5 -98q0 -58 -40.5 -99t-97.5 -41t-97 41t-40 99zM1163 117q0 57 40 98t97 41t97.5 -41t40.5 -98q0 -58 -40.5 -99t-97.5 -41t-97 41t-40 99z" />
<glyph unicode="&#x202f;" horiz-adv-x="369" />
<glyph unicode="&#x2039;" horiz-adv-x="708" d="M82 545l383 454l139 -112l-270 -342l270 -344l-139 -113z" />
<glyph unicode="&#x203a;" horiz-adv-x="708" d="M100 201l271 344l-271 342l140 112l383 -454l-383 -457z" />
<glyph unicode="&#x205f;" horiz-adv-x="462" />
<glyph unicode="&#x20ac;" horiz-adv-x="1404" d="M25 756l55 176h174q72 216 242 346.5t401 130.5q266 0 428 -125l-70 -205q-156 117 -340 117q-132 0 -234 -70t-151 -194h676l-59 -176h-664q0 -8 -1 -23t-1 -20v-19q0 -34 2 -61h623l-59 -176h-523q50 -128 155 -195t247 -67q151 0 362 84v-213q-74 -38 -182.5 -60 t-206.5 -22q-241 0 -410.5 128t-238.5 345h-223l53 176h139q-4 23 -4 59q0 37 4 64h-194z" />
<glyph unicode="&#x2122;" horiz-adv-x="1021" d="M84 1298v88h365v-88h-127v-360h-107v360h-131zM516 938v448h115l112 -258l113 258h111v-448h-101v268l-92 -211h-67l-93 211v-268h-98z" />
<glyph unicode="&#xfb01;" horiz-adv-x="1071" d="M27 821v195h155v164q0 163 91.5 267.5t256.5 104.5q66 0 95 -10q-6 -93 -9 -190q-1 0 -28.5 2t-44.5 2q-127 0 -127 -176v-164h194v-195h-194v-821h-234v821h-155zM705 1325q0 57 39.5 96t95.5 39q57 0 96 -39t39 -96q-2 -58 -40.5 -97.5t-94.5 -39.5t-95.5 40t-39.5 97z M723 0v1016h233v-1016h-233z" />
<glyph unicode="&#xfb02;" horiz-adv-x="1079" d="M27 821v195h155v164q0 163 91.5 267.5t256.5 104.5q66 0 95 -10q-6 -93 -9 -190q-1 0 -28.5 2t-44.5 2q-127 0 -127 -176v-164h194v-195h-194v-821h-234v821h-155zM731 0v1546h236v-1546h-236z" />
</font>
</defs>
</svg>
